<svg xmlns:xlink="http://www.w3.org/1999/xlink" xmlns="http://www.w3.org/2000/svg" viewBox="0 0 64 64" width="512" height="512"><path d="M 19 2 A 3 3 0 0 0 16 5 L 16 10 L 11 10 A 3 3 0 0 0 8 13 L 8 44.763672 L 2.1054688 56.552734 A 1 1 0 0 0 2 57 L 2 60 A 2 2 0 0 0 4 62 L 60 62 A 2 2 0 0 0 62 60 L 62 57 A 1 1 0 0 0 61.900391 56.552734 L 56 44.763672 L 56 13.822266 L 56.830078 12.384766 A 5 5 0 0 0 48.169922 7.3847656 L 47.025391 9.3671875 L 41.800781 2.4003906 A 1 1 0 0 0 41 2 L 19 2 z M 19 4 L 40 4 L 40 10 A 2 2 0 0 0 42 12 L 45.505859 12 L 37.669922 25.572266 A 0.994 0.994 0 0 0 37.537109 26.136719 L 37.75 29.435547 L 36.400391 31.769531 A 3.0016662 3.0016662 0 0 0 41.599609 34.769531 L 42.947266 32.433594 L 45.908203 30.96875 C 45.942203 30.95175 45.969953 30.924297 46.001953 30.904297 L 46.001953 37 A 1 1 0 0 1 45.001953 38 L 19 38 A 1 1 0 0 1 18 37 L 18 5 A 1 1 0 0 1 19 4 z M 42 6 L 45 10 L 42 10 L 42 6 z M 52.615234 6.8867188 A 3 3 0 0 1 55.097656 11.386719 L 54.597656 12.253906 L 49.398438 9.2539062 L 49.898438 8.3867188 A 2.984 2.984 0 0 1 51.724609 6.9863281 A 3 3 0 0 1 52.615234 6.8867188 z M 22 8 L 22 10 L 24 10 L 24 8 L 22 8 z M 26 8 L 26 10 L 36 10 L 36 8 L 26 8 z M 48.400391 10.982422 L 53.599609 13.982422 L 53.099609 14.849609 L 47.900391 11.849609 L 48.400391 10.982422 z M 11 12 L 16 12 L 16 37 A 3 3 0 0 0 19 40 L 45 40 A 3 3 0 0 0 48 37 L 48 27.679688 L 54 17.287109 L 54 44 L 10 44 L 10 13 A 1 1 0 0 1 11 12 z M 22 12 L 22 14 L 36 14 L 36 12 L 22 12 z M 46.902344 13.576172 L 52.101562 16.576172 L 45.597656 27.835938 L 43.865234 26.835938 L 49.365234 17.308594 L 47.634766 16.308594 L 42.134766 25.835938 L 40.402344 24.835938 L 46.902344 13.576172 z M 22 16 L 22 18 L 40 18 L 40 16 L 22 16 z M 22 20 L 22 22 L 36 22 L 36 20 L 22 20 z M 22 24 L 22 26 L 28 26 L 28 24 L 22 24 z M 30 24 L 30 26 L 32 26 L 32 24 L 30 24 z M 34 24 L 34 26 L 36 26 L 36 24 L 34 24 z M 39.576172 26.671875 L 44.423828 29.470703 L 42.269531 30.535156 L 39.730469 29.070312 L 39.576172 26.671875 z M 22 28 L 22 30 L 26 30 L 26 28 L 22 28 z M 28 28 L 28 30 L 30 30 L 30 28 L 28 28 z M 32 28 L 32 30 L 36 30 L 36 28 L 32 28 z M 39.134766 31.035156 L 40.865234 32.035156 L 39.865234 33.767578 A 1 1 0 0 1 38.134766 32.767578 L 39.134766 31.035156 z M 22 32 L 22 34 L 30 34 L 30 32 L 22 32 z M 9.6171875 46 L 54.382812 46 L 59.382812 56 L 40.617188 56 L 38.900391 52.552734 A 1 1 0 0 0 38 52 L 26 52 A 1 1 0 0 0 25.105469 52.552734 L 23.382812 56 L 4.6171875 56 L 9.6171875 46 z M 11 48 L 11 50 L 13 50 L 13 48 L 11 48 z M 15 48 L 15 50 L 17 50 L 17 48 L 15 48 z M 19 48 L 19 50 L 21 50 L 21 48 L 19 48 z M 23 48 L 23 50 L 25 50 L 25 48 L 23 48 z M 27 48 L 27 50 L 29 50 L 29 48 L 27 48 z M 31 48 L 31 50 L 33 50 L 33 48 L 31 48 z M 35 48 L 35 50 L 37 50 L 37 48 L 35 48 z M 39 48 L 39 50 L 41 50 L 41 48 L 39 48 z M 43 48 L 43 50 L 45 50 L 45 48 L 43 48 z M 47 48 L 47 50 L 49 50 L 49 48 L 47 48 z M 51 48 L 51 50 L 53 50 L 53 48 L 51 48 z M 10 52 L 10 54 L 12 54 L 12 52 L 10 52 z M 14 52 L 14 54 L 16 54 L 16 52 L 14 52 z M 18 52 L 18 54 L 22 54 L 22 52 L 18 52 z M 42 52 L 42 54 L 46 54 L 46 52 L 42 52 z M 48 52 L 48 54 L 50 54 L 50 52 L 48 52 z M 52 52 L 52 54 L 54 54 L 54 52 L 52 52 z M 26.617188 54 L 37.382812 54 L 38.382812 56 L 25.617188 56 L 26.617188 54 z M 4 58 L 60 58 L 60 60 L 4 60 L 4 58 z"/></svg>